<?xml version="1.0" standalone="no"?>
<!DOCTYPE svg PUBLIC "-//W3C//DTD SVG 20010904//EN"
 "http://www.w3.org/TR/2001/REC-SVG-20010904/DTD/svg10.dtd">
<svg version="1.0" xmlns="http://www.w3.org/2000/svg"
 width="1200.000000pt" height="340.000000pt" viewBox="0 0 1200.000000 340.000000"
 preserveAspectRatio="xMidYMid meet">
<metadata>
Created by potrace 1.15, written by Peter Selinger 2001-2017
</metadata>
<g transform="translate(0.000000,340.000000) scale(0.100000,-0.100000)"
fill="#007bff" stroke="none">
<path d="M220 2633 l0 -200 418 -6 c360 -5 425 -8 477 -23 119 -36 175 -129
162 -270 -10 -106 -64 -182 -161 -224 -65 -29 -218 -39 -598 -40 l-298 0 0
-580 0 -580 250 0 250 0 0 380 0 380 93 0 92 0 289 -380 289 -380 563 0 563 0
30 98 c16 53 44 145 62 204 l33 108 331 0 332 0 61 -201 c34 -111 63 -204 66
-207 3 -2 130 -7 282 -10 235 -4 277 -3 272 9 -2 8 -164 488 -359 1066 l-354
1053 -252 0 c-212 0 -253 -2 -253 -14 0 -8 43 -140 95 -293 88 -256 315 -973
315 -994 0 -5 -203 -10 -466 -11 l-466 -3 -120 -355 c-66 -195 -123 -358 -127
-363 -7 -7 -647 790 -645 802 1 4 28 21 60 40 85 49 214 182 253 260 50 99 71
196 71 330 0 184 -36 286 -138 393 -63 67 -145 120 -230 150 -118 42 -203 48
-734 55 l-508 6 0 -200z"/>
<path d="M4270 1765 l0 -1065 255 0 255 0 0 1065 0 1065 -255 0 -255 0 0
-1065z"/>
<path d="M5795 2778 c-12 -29 -116 -259 -229 -512 -113 -252 -206 -465 -206
-472 0 -11 -43 -14 -224 -16 l-223 -3 121 -285 121 -285 185 -3 185 -2 185
436 185 435 3 -685 2 -686 270 0 270 0 0 1065 0 1065 -311 0 -310 0 -24 -52z"/>
<path d="M8700 2625 l0 -205 720 0 720 0 0 205 0 205 -720 0 -720 0 0 -205z"/>
<path d="M10380 2820 c0 -5 161 -213 358 -462 197 -249 361 -458 365 -465 4
-6 -145 -248 -356 -575 -200 -309 -367 -569 -371 -575 -6 -10 47 -13 252 -13
l260 0 362 583 c298 480 360 586 353 603 -4 12 -163 222 -353 467 l-345 447
-262 0 c-165 0 -263 -4 -263 -10z"/>
<path d="M6710 2653 c0 -93 3 -177 6 -188 3 -12 264 -268 579 -569 430 -411
577 -557 586 -583 34 -105 -55 -209 -209 -242 -74 -16 -254 -13 -337 4 -162
34 -315 100 -446 189 -53 37 -91 56 -110 56 l-29 0 0 -253 0 -253 103 -38
c255 -95 416 -120 709 -114 176 5 216 9 300 31 241 64 420 193 508 367 51 100
64 163 65 300 0 118 -17 232 -34 227 -4 -1 -208 177 -454 395 -245 219 -457
408 -472 420 l-26 23 435 -3 436 -3 0 201 0 200 -805 0 -805 0 0 -167z"/>
<path d="M8978 2053 l-278 -3 0 -675 0 -675 720 0 720 0 0 205 0 205 -450 0
-450 0 0 265 0 265 415 0 415 0 0 210 0 210 -407 -2 c-225 -2 -533 -4 -685 -5z"/>
</g>
</svg>
